<svg xmlns="http://www.w3.org/2000/svg" viewBox="0 0 64 64" width="64" height="64">
  <defs>
    <linearGradient id="maskGrad" x1="0%" y1="0%" x2="100%" y2="100%">
      <stop offset="0%" stop-color="#424242"/>
      <stop offset="100%" stop-color="#212121"/>
    </linearGradient>
    <linearGradient id="beakGrad" x1="0%" y1="0%" x2="100%" y2="100%">
      <stop offset="0%" stop-color="#FFD54F"/>
      <stop offset="100%" stop-color="#FF8F00"/>
    </linearGradient>
  </defs>
  <path d="M16 24 C16 16 24 10 32 10 C40 10 48 16 48 24 L48 36 C48 40 44 44 40 44 L32 54 L24 44 C20 44 16 40 16 36 Z" fill="url(#maskGrad)" stroke="#616161" stroke-width="2" stroke-linejoin="round"/>
  <path d="M22 26 A4 4 0 1 1 22 34 A4 4 0 1 1 22 26" fill="#E0E0E0" stroke="#9E9E9E" stroke-width="1.5"/>
  <path d="M42 26 A4 4 0 1 1 42 34 A4 4 0 1 1 42 26" fill="#E0E0E0" stroke="#9E9E9E" stroke-width="1.5"/>
  <path d="M32 36 L32 50 L26 44 M32 36 L32 50 L38 44" fill="url(#beakGrad)" stroke="#E65100" stroke-width="1"/>
</svg>