<svg xmlns="http://www.w3.org/2000/svg" viewBox="0 0 64 64" width="64" height="64">
  <defs>
    <linearGradient id="breastplateGrad" x1="0%" y1="0%" x2="0%" y2="100%">
      <stop offset="0%" stop-color="#B0BEC5"/>
      <stop offset="50%" stop-color="#78909C"/>
      <stop offset="100%" stop-color="#546E7A"/>
    </linearGradient>
    <filter id="plateGlow" x="-20%" y="-20%" width="140%" height="140%">
      <feGaussianBlur stdDeviation="1.5" result="blur"/>
      <feComposite in="SourceGraphic" in2="blur" operator="over"/>
    </filter>
  </defs>
  <path d="M16 14 C16 14 20 10 32 10 C44 10 48 14 48 14 L52 32 C52 44 44 54 32 58 C20 54 12 44 12 32 Z" fill="url(#breastplateGrad)" stroke="#37474F" stroke-width="2" stroke-linejoin="round" filter="url(#plateGlow)"/>
  <path d="M20 18 C20 18 24 14 32 14 C40 14 44 18 44 18 L46 30 C46 40 40 48 32 52 C24 48 18 40 18 30 Z" fill="none" stroke="#CFD8DC" stroke-width="1.5" opacity="0.5"/>
  <path d="M32 18 L32 48" stroke="#CFD8DC" stroke-width="1.5" opacity="0.4"/>
  <path d="M22 28 L42 28" stroke="#CFD8DC" stroke-width="1" opacity="0.3"/>
  <circle cx="32" cy="24" r="3" fill="#FFD54F" stroke="#FF8F00" stroke-width="1"/>
</svg>