<svg xmlns="http://www.w3.org/2000/svg" viewBox="0 0 80 80"><title>Arcanist · Last Defiance</title><path d="M12 2h56l10 10v56L68 78H12L2 68V12Z" fill="#101b2a" stroke="#a9bfff" stroke-width="2"/><path d="M10 24V12h12M58 12h10v12M10 56v12h12m36 0h10V56" fill="none" stroke="#687c93"/><g transform="translate(16 21)" fill="#263b50" stroke="#a9bfff" stroke-width="2.2" stroke-linecap="round" stroke-linejoin="round"><path d="M23 44C-6 25 10 3 23 19 37 3 54 25 23 44Z"/><path d="m27 13-9 12 10 4-9 13"/></g><g transform="translate(29 3)" fill="#152337" stroke="#a9bfff" stroke-width="1.5" stroke-linejoin="round"><path d="M10 1l3 6 6 3-6 3-3 6-3-6-6-3 6-3Z"/></g></svg>
