<svg xmlns="http://www.w3.org/2000/svg" viewBox="0 0 80 80"><title>Berserker · Discipline</title><path d="M12 2h56l10 10v56L68 78H12L2 68V12Z" fill="#101b2a" stroke="#e8bf73" stroke-width="2"/><path d="M10 24V12h12M58 12h10v12M10 56v12h12m36 0h10V56" fill="none" stroke="#687c93"/><g transform="translate(16 21)" fill="#263b50" stroke="#e8bf73" stroke-width="2.2" stroke-linecap="round" stroke-linejoin="round"><path d="M29 10 35 16 24 37 19 39 18 33Z"/><path d="m15 30 12 7M17 38l-5 9"/></g><g transform="translate(29 3)" fill="#152337" stroke="#e8bf73" stroke-width="1.5" stroke-linejoin="round"><path d="M2 3l7 4-5 6 4 5M18 3l-7 4 5 6-4 5"/></g></svg>
