<svg xmlns="http://www.w3.org/2000/svg" viewBox="0 0 80 80"><title>Marksman · Stored Might</title><path d="M12 2h56l10 10v56L68 78H12L2 68V12Z" fill="#101b2a" stroke="#91c88e" stroke-width="2"/><path d="M10 24V12h12M58 12h10v12M10 56v12h12m36 0h10V56" fill="none" stroke="#687c93"/><g transform="translate(16 21)" fill="#263b50" stroke="#91c88e" stroke-width="2.2" stroke-linecap="round" stroke-linejoin="round"><path d="m24 4 9 12-9 12-9-12ZM11 26l8 10-8 10-8-10Zm26 0 8 10-8 10-8-10Z"/></g><g transform="translate(29 3)" fill="#152337" stroke="#91c88e" stroke-width="1.5" stroke-linejoin="round"><path d="M10 1v18M1 10h18M4 4l12 12M4 16 16 4"/></g></svg>
