<svg xmlns="http://www.w3.org/2000/svg" viewBox="0 0 80 80"><title>Runesmith · Guarded Opening</title><path d="M12 2h56l10 10v56L68 78H12L2 68V12Z" fill="#101b2a" stroke="#82cdd5" stroke-width="2"/><path d="M10 24V12h12M58 12h10v12M10 56v12h12m36 0h10V56" fill="none" stroke="#687c93"/><g transform="translate(16 21)" fill="#263b50" stroke="#82cdd5" stroke-width="2.2" stroke-linecap="round" stroke-linejoin="round"><path d="m24 5 17 8v14c0 11-17 19-17 19S7 38 7 27V13Z"/><path d="M24 14v22m-10-11h20"/></g><g transform="translate(29 3)" fill="#152337" stroke="#82cdd5" stroke-width="1.5" stroke-linejoin="round"><path d="M3 4h14v12H3Zm4-3v18M13 1v18M1 8h18M1 12h18"/></g></svg>
